<?xml version="1.0" encoding="UTF-8" standalone="no"?>
<svg xmlns:inkscape="http://www.inkscape.org/namespaces/inkscape" xmlns:sodipodi="http://sodipodi.sourceforge.net/DTD/sodipodi-0.dtd" xmlns="http://www.w3.org/2000/svg" xmlns:svg="http://www.w3.org/2000/svg" id="logos" viewBox="0 0 1619.95 151.86" version="1.1" sodipodi:docname="DataStax-logo.svg" inkscape:version="1.1.1 (3bf5ae0d25, 2021-09-20)" width="1619.95" height="151.86">
  <defs id="defs23"></defs>
  <g id="g849" transform="translate(-153.11,-152.07)">
    <polygon points="1107.63,240.65 1107.63,277.67 971.11,277.67 971.11,303.93 1099.85,303.93 1133.89,277.67 1133.89,240.65 1099.85,214.4 990.59,214.4 990.59,178.33 1123.73,178.33 1123.73,152.07 998.38,152.07 964.33,178.33 964.33,214.4 998.38,240.65 " id="polygon2"></polygon>
    <polygon points="555.26,303.93 467.54,152.07 443.62,152.07 355.91,303.93 386.22,303.93 455.63,183.83 524.94,303.93 " id="polygon4"></polygon>
    <polygon points="656.62,178.33 728.27,178.33 728.27,152.07 558.72,152.07 558.72,178.33 630.37,178.33 630.37,303.93 656.62,303.93 " id="polygon6"></polygon>
    <polygon points="1273.94,178.33 1345.59,178.33 1345.59,152.07 1176.04,152.07 1176.04,178.33 1247.69,178.33 1247.69,303.93 1273.94,303.93 " id="polygon8"></polygon>
    <path d="M 288.62,152.07 H 153.11 v 151.85 h 135.51 l 34.04,-26.25 v -99.35 z m -109.26,125.6 v -99.35 h 117.05 v 99.35 z" id="path10"></path>
    <polygon points="1581.52,303.93 1611.84,303.93 1640.54,254.25 1640.54,254.25 1655.72,228 1640.54,201.75 1611.84,152.07 1581.52,152.07 1625.38,228 " id="polygon12"></polygon>
    <polygon points="1773.06,303.93 1742.75,303.93 1714.04,254.25 1714.04,254.25 1698.87,228 1714.04,201.75 1742.75,152.07 1773.06,152.07 1729.21,228 " id="polygon14"></polygon>
    <polygon points="731.74,303.93 819.46,152.07 843.37,152.07 931.09,303.93 900.77,303.93 831.36,183.83 762.06,303.93 " id="polygon16"></polygon>
    <polygon points="1349.05,303.93 1436.77,152.07 1460.69,152.07 1548.4,303.93 1518.09,303.93 1448.68,183.83 1379.37,303.93 " id="polygon18"></polygon>
  </g>
</svg>
