<svg xmlns="http://www.w3.org/2000/svg" width="246" height="48" viewBox="0 0 246 48" fill="none"><g clip-path="url(#clip0)"><path d="M18.0624 13.6989H16.125V25.3863C16.125 30.0955 12.9646 33.0045 8.57542 33.0045C4.63201 33.0045 2.43739 31.0042 2.43739 26.1464V13.6875H0.5V26.4721C0.5 32.1529 3.7976 34.7361 8.50112 34.7361C11.8616 34.7361 14.7877 33.0559 16.1193 30.347V34.2104H18.0567L18.0624 13.6989Z" fill="#76777A"></path><path d="M33.8085 13.1848C30.4538 13.1848 27.5219 14.8593 26.1903 17.574V13.6992H24.2529V34.2106H26.1903V22.5461C26.1903 17.8312 29.3565 14.9279 33.7457 14.9279C37.6205 14.9279 39.878 16.9911 39.878 21.786V34.2106H41.8154V21.4488C41.8154 15.768 38.2663 13.1848 33.8143 13.1848" fill="#76777A"></path><path d="M48.7517 7.27539C48.4315 7.27539 48.1186 7.37041 47.8525 7.54838C47.5864 7.72635 47.3791 7.97928 47.2569 8.27515C47.1346 8.57102 47.1029 8.89651 47.1658 9.21041C47.2286 9.5243 47.3833 9.81247 47.61 10.0384C47.8368 10.2644 48.1255 10.418 48.4396 10.4797C48.7537 10.5415 49.0791 10.5087 49.3745 10.3854C49.67 10.2621 49.9222 10.0539 50.0992 9.78715C50.2762 9.52042 50.3701 9.20718 50.369 8.88705C50.3616 8.46093 50.1887 8.05441 49.8868 7.75359C49.5849 7.45277 49.1778 7.28127 48.7517 7.27539ZM49.7232 13.6991H47.8144V34.2106H49.7518L49.7232 13.6991Z" fill="#76777A"></path><path d="M66.2587 13.1848C64.5326 13.1363 62.8281 13.5775 61.3423 14.4574C59.8566 15.3373 58.6504 16.62 57.8632 18.1569V13.6991H55.9258V47.9267H57.8632V29.7756C58.6504 31.3125 59.8566 32.5951 61.3423 33.4751C62.8281 34.355 64.5326 34.7962 66.2587 34.7478C72.3281 34.7478 76.7801 30.0328 76.7801 23.9634C76.7801 17.894 72.3281 13.1848 66.2587 13.1848ZM66.2587 33.0047C61.2237 33.0047 57.7375 29.1927 57.7375 23.9634C57.7375 18.7341 61.2237 14.9279 66.2587 14.9279C71.2937 14.9279 74.7798 18.7341 74.7798 23.9634C74.7798 29.1927 71.2937 33.0047 66.2587 33.0047Z" fill="#76777A"></path><path d="M83.5228 0H81.5854V34.2105H83.5228V22.546C83.5228 17.8311 86.6204 14.9278 91.0725 14.9278C94.9473 14.9278 97.2105 16.9909 97.2105 21.7859V34.2105H99.1479V21.4487C99.1479 15.7679 95.5931 13.1847 91.1468 13.1847C89.5958 13.1432 88.0635 13.5312 86.7192 14.3057C85.3748 15.0803 84.2706 16.2113 83.5286 17.5739L83.5228 0Z" fill="#76777A"></path><path d="M114.3 13.1847C112.159 13.145 110.054 13.7437 108.254 14.9045C106.455 16.0654 105.041 17.7358 104.194 19.7029C103.348 21.67 103.106 23.8447 103.499 25.9498C103.893 28.0549 104.905 29.9952 106.405 31.5233C107.906 33.0513 109.827 34.098 111.925 34.53C114.022 34.9619 116.201 34.7595 118.183 33.9486C120.165 33.1377 121.861 31.755 123.055 29.9767C124.248 28.1983 124.885 26.105 124.884 23.9634C124.908 22.5576 124.653 21.161 124.132 19.855C123.611 18.549 122.835 17.3598 121.85 16.3566C120.865 15.3534 119.69 14.5563 118.394 14.0117C117.098 13.4671 115.706 13.186 114.3 13.1847ZM114.3 33.0675C109.328 33.0675 105.727 29.1298 105.727 23.9634C105.727 18.7969 109.345 14.8592 114.3 14.8592C119.255 14.8592 122.872 18.8026 122.872 23.9634C122.872 29.1241 119.255 33.0675 114.3 33.0675Z" fill="#76777A"></path><path d="M137.76 13.1846C135.114 13.1846 132.919 14.7963 131.627 17.3166V13.699H129.69V34.2104H131.627V22.3516C131.627 18.151 134.399 14.9906 137.628 14.9906C138.521 14.9138 139.416 15.0922 140.211 15.505L140.92 13.8933C139.963 13.3424 138.861 13.0953 137.76 13.1846Z" fill="#76777A"></path><path d="M152.053 13.1848C146.372 13.1848 141.72 17.894 141.72 23.9635C141.72 30.0329 146.178 34.7478 152.505 34.7478C156.442 34.7478 159.283 33.3248 161.157 30.9359L159.866 29.7929C158.248 31.7931 156.185 33.0847 152.505 33.0847C147.664 33.0847 143.932 29.7929 143.726 24.3692H162.192C162.06 17.7855 158.122 13.2019 152.053 13.2019V13.1848ZM143.789 22.689C144.303 18.1741 147.532 14.8765 152.053 14.8765C157.151 14.8765 159.671 18.3055 160.186 22.689H143.789Z" fill="#76777A"></path><path d="M219.954 7.76099C219.288 7.76024 218.628 7.89103 218.012 8.14588C217.396 8.40072 216.837 8.77461 216.366 9.2461C215.895 9.71758 215.522 10.2774 215.267 10.8934C215.013 11.5095 214.883 12.1696 214.885 12.836L214.919 29.0097C214.919 30.9802 214.136 32.8699 212.743 34.2632C211.35 35.6566 209.46 36.4393 207.489 36.4393C206.514 36.4393 205.548 36.2471 204.646 35.8738C203.745 35.5004 202.926 34.9531 202.236 34.2632C201.546 33.5733 200.999 32.7543 200.625 31.8529C200.252 30.9515 200.06 29.9854 200.06 29.0097L200.117 12.8303C200.115 11.4863 199.581 10.1978 198.631 9.24742C197.68 8.29707 196.392 7.7625 195.048 7.76099C193.704 7.7625 192.415 8.29707 191.465 9.24742C190.514 10.1978 189.98 11.4863 189.978 12.8303V29.2097C189.979 29.4403 189.934 29.6688 189.846 29.882C189.759 30.0953 189.629 30.289 189.466 30.452C189.303 30.6151 189.109 30.7443 188.896 30.8322C188.683 30.9201 188.455 30.965 188.224 30.9643C187.759 30.9643 187.312 30.7794 186.983 30.4504C186.654 30.1213 186.469 29.6751 186.469 29.2097V18.2939C186.468 16.9499 185.933 15.6614 184.983 14.711C184.033 13.7607 182.744 13.2262 181.4 13.2246C180.057 13.2261 178.768 13.7597 177.817 14.7087C176.866 15.6576 176.33 16.9447 176.325 18.2882V23.7289C176.324 24.1938 176.138 24.6392 175.81 24.9679C175.481 25.2966 175.035 25.482 174.571 25.4835C174.106 25.482 173.66 25.2966 173.332 24.9679C173.003 24.6392 172.818 24.1938 172.816 23.7289V22.6545C172.816 22.2165 172.642 21.7964 172.332 21.4866C172.023 21.1769 171.602 21.0029 171.164 21.0029C170.726 21.0029 170.306 21.1769 169.997 21.4866C169.687 21.7964 169.513 22.2165 169.513 22.6545V23.7289C169.514 25.0729 170.049 26.3615 170.999 27.3118C171.95 28.2622 173.238 28.7967 174.582 28.7983C175.926 28.7967 177.215 28.2622 178.165 27.3118C179.115 26.3615 179.65 25.0729 179.651 23.7289V18.2882C179.651 17.8229 179.836 17.3766 180.165 17.0476C180.494 16.7185 180.94 16.5337 181.406 16.5337C181.871 16.5337 182.317 16.7185 182.646 17.0476C182.975 17.3766 183.16 17.8229 183.16 18.2882V29.2097C183.162 30.5537 183.696 31.8422 184.647 32.7926C185.597 33.7429 186.886 34.2775 188.23 34.279C188.896 34.2805 189.556 34.1505 190.172 33.8963C190.788 33.6422 191.348 33.2689 191.82 32.7979C192.291 32.327 192.665 31.7676 192.92 31.1519C193.175 30.5361 193.305 29.8761 193.305 29.2097V12.836C193.304 12.3717 193.487 11.926 193.813 11.5958C193.975 11.4311 194.168 11.3006 194.381 11.2122C194.594 11.1238 194.823 11.0794 195.053 11.0815C195.284 11.0807 195.512 11.1254 195.724 11.213C195.937 11.3005 196.131 11.4292 196.294 11.5917C196.457 11.7541 196.586 11.9472 196.674 12.1597C196.763 12.3723 196.808 12.6002 196.808 12.8303L196.757 29.0097C196.757 31.8628 197.89 34.5992 199.907 36.6172C201.923 38.6352 204.659 39.7697 207.512 39.7712C210.365 39.7682 213.099 38.633 215.114 36.6152C217.13 34.5973 218.262 31.8619 218.262 29.0097L218.228 12.8303C218.23 12.366 218.415 11.9212 218.744 11.5933C219.073 11.2655 219.518 11.0815 219.983 11.0815C220.448 11.083 220.893 11.2683 221.222 11.597C221.55 11.9257 221.736 12.3711 221.737 12.836V29.2154C221.742 30.5595 222.278 31.8471 223.229 32.797C224.18 33.7468 225.468 34.2817 226.812 34.2847C228.156 34.2832 229.445 33.7486 230.395 32.7983C231.345 31.8479 231.88 30.5594 231.881 29.2154V18.2939C231.881 17.8286 232.066 17.3823 232.395 17.0533C232.724 16.7242 233.171 16.5394 233.636 16.5394C233.866 16.5386 234.094 16.5833 234.307 16.6709C234.52 16.7584 234.713 16.8871 234.876 17.0496C235.039 17.212 235.169 17.4051 235.257 17.6176C235.345 17.8302 235.39 18.0581 235.39 18.2882V23.7289C235.392 25.0729 235.927 26.3615 236.877 27.3118C237.827 28.2622 239.116 28.7967 240.46 28.7983C241.805 28.7967 243.094 28.2614 244.045 27.3098C244.995 26.3582 245.529 25.0682 245.529 23.7233V22.6659C245.529 22.2279 245.355 21.8078 245.045 21.4981C244.736 21.1883 244.315 21.0143 243.877 21.0143C243.439 21.0143 243.019 21.1883 242.71 21.4981C242.4 21.8078 242.226 22.2279 242.226 22.6659V23.7289C242.224 24.1933 242.039 24.6381 241.71 24.9659C241.381 25.2937 240.936 25.4778 240.471 25.4778C240.007 25.4778 239.561 25.2937 239.233 24.9659C238.904 24.6381 238.718 24.1933 238.717 23.7289V18.2882C238.715 16.9442 238.181 15.6557 237.23 14.7054C236.28 13.755 234.991 13.2204 233.647 13.2189C232.303 13.2204 231.015 13.755 230.065 14.7054C229.114 15.6557 228.58 16.9442 228.578 18.2882V29.2154C228.578 29.6808 228.393 30.1271 228.064 30.4561C227.735 30.7851 227.289 30.97 226.824 30.97C226.358 30.97 225.912 30.7851 225.583 30.4561C225.254 30.1271 225.069 29.6808 225.069 29.2154V12.836C225.069 11.491 224.535 10.201 223.585 9.24944C222.634 8.29786 221.345 7.7625 220 7.76099H219.954Z" fill="url(#paint0_linear)"></path></g><defs><linearGradient id="paint0_linear" x1="169.473" y1="23.7689" x2="245.5" y2="23.7689" gradientUnits="userSpaceOnUse"><stop stop-color="#FF6C0E"></stop><stop offset="1" stop-color="#EB008B"></stop></linearGradient><clipPath id="clip0"><rect width="245" height="47.921" fill="white" transform="translate(0.5)"></rect></clipPath></defs></svg>