<svg xmlns="http://www.w3.org/2000/svg" xmlns:xlink="http://www.w3.org/1999/xlink" version="1.1" xml:space="preserve" viewBox="0 0 1080 1080">
<desc>Created with Fabric.js 5.2.4</desc>
<defs>
</defs>
<g transform="matrix(1 0 0 1 540 540)" id="60088ced-8c79-4332-ae56-70087c3a0a58">
<rect style="stroke: none; stroke-width: 1; stroke-dasharray: none; stroke-linecap: butt; stroke-dashoffset: 0; stroke-linejoin: miter; stroke-miterlimit: 4; fill: rgb(255,255,255); fill-rule: nonzero; opacity: 1; visibility: hidden;" vector-effect="non-scaling-stroke" x="-540" y="-540" rx="0" ry="0" width="1080" height="1080"/>
</g>
<g transform="matrix(1 0 0 1 540 540)" id="cf38288a-adc8-478a-a673-ca4a3a0a712a">
</g>
<g transform="matrix(1 0 0 1 463.56 360.6)">
<path style="stroke: none; stroke-width: 1; stroke-dasharray: none; stroke-linecap: butt; stroke-dashoffset: 0; stroke-linejoin: miter; stroke-miterlimit: 4; fill: rgb(118,119,122); fill-rule: nonzero; opacity: 1;" vector-effect="non-scaling-stroke" transform=" translate(-173.56, -250)" d="M 57.272 231.087 L 53.745 231.087 L 53.745 252.551 C 53.745 261.182 47.965999999999994 266.585 39.861 266.585 C 32.580999999999996 266.585 28.602999999999998 262.90799999999996 28.602999999999998 253.97699999999998 L 28.602999999999998 231.087 L 25 231.087 L 25 254.57799999999997 C 25 265.01 31.079 269.738 39.71 269.738 C 45.864000000000004 269.738 51.268 266.661 53.744 261.708 L 53.744 268.838 L 57.271 268.838 L 57.271 231.087 z M 86.241 230.187 C 80.087 230.187 74.68299999999999 233.264 72.207 238.217 L 72.207 231.08700000000002 L 68.67999999999999 231.08700000000002 L 68.67999999999999 268.762 L 72.207 268.762 L 72.207 247.298 C 72.207 238.667 78.06099999999999 233.264 86.091 233.264 C 93.22099999999999 233.264 97.34899999999999 237.092 97.34899999999999 245.872 L 97.34899999999999 268.687 L 100.87599999999999 268.687 L 100.87599999999999 245.27100000000002 C 100.951 234.915 94.421 230.187 86.241 230.187 M 113.709 219.305 C 113.10900000000001 219.305 112.50800000000001 219.455 112.058 219.83 C 111.608 220.205 111.15700000000001 220.656 110.932 221.181 C 110.707 221.70600000000002 110.632 222.30700000000002 110.782 222.907 C 110.932 223.507 111.157 224.03300000000002 111.60799999999999 224.40800000000002 C 112.05799999999999 224.858 112.58399999999999 225.08300000000003 113.109 225.234 C 113.70899999999999 225.38400000000001 114.30999999999999 225.309 114.835 225.084 C 115.36 224.859 115.81099999999999 224.484 116.18599999999999 223.958 C 116.48599999999999 223.433 116.711 222.907 116.711 222.307 C 116.711 221.55599999999998 116.411 220.80599999999998 115.81 220.206 C 115.21 219.605 114.46 219.305 113.709 219.305 z M 115.435 231.087 L 111.908 231.087 L 111.908 268.762 L 115.435 268.762 L 115.435 231.087 z M 145.831 230.187 C 142.679 230.11200000000002 139.527 230.93800000000002 136.825 232.514 C 134.123 234.16500000000002 131.87199999999999 236.49200000000002 130.446 239.34400000000002 L 130.446 231.16400000000002 L 126.919 231.16400000000002 L 126.919 294.05600000000004 L 130.446 294.05600000000004 L 130.446 260.73400000000004 C 131.87199999999999 263.586 134.123 265.91200000000003 136.825 267.564 C 139.527 269.21500000000003 142.679 269.966 145.831 269.891 C 157.01299999999998 269.891 165.194 261.26 165.194 250.07800000000003 C 165.194 238.893 157.013 230.187 145.831 230.187 z M 145.831 266.586 C 136.6 266.586 130.146 259.606 130.146 250 C 130.146 240.394 136.52499999999998 233.414 145.831 233.414 C 155.06199999999998 233.414 161.516 240.39399999999998 161.516 250 C 161.516 259.606 155.137 266.586 145.831 266.586 z M 177.577 205.946 L 174.05 205.946 L 174.05 268.838 L 177.577 268.838 L 177.577 247.37400000000002 C 177.577 238.74300000000002 183.281 233.34000000000003 191.461 233.34000000000003 C 198.591 233.34000000000003 202.71900000000002 237.16800000000003 202.71900000000002 245.94800000000004 L 202.71900000000002 268.76300000000003 L 206.246 268.76300000000003 L 206.246 245.34700000000004 C 206.246 234.91500000000005 199.717 230.18700000000004 191.536 230.18700000000004 C 188.684 230.11200000000005 185.832 230.78700000000003 183.431 232.21300000000005 C 180.954 233.63900000000004 178.928 235.74000000000004 177.577 238.21700000000004 L 177.577 205.946 z M 234.165 230.187 C 230.262 230.11200000000002 226.35999999999999 231.238 223.058 233.339 C 219.756 235.44 217.129 238.517 215.628 242.12 C 214.052 245.722 213.60199999999998 249.70000000000002 214.35199999999998 253.603 C 215.10299999999998 257.50600000000003 216.90399999999997 261.033 219.68099999999998 263.81 C 222.45799999999997 266.587 225.98499999999999 268.538 229.813 269.364 C 233.641 270.19 237.69299999999998 269.81399999999996 241.296 268.313 C 244.97299999999998 266.812 248.051 264.26 250.227 261.033 C 252.403 257.731 253.604 253.90300000000002 253.604 250.001 C 253.679 247.449 253.15400000000002 244.823 252.25300000000001 242.421 C 251.27700000000002 240.019 249.85100000000003 237.843 248.05 235.96699999999998 C 246.24900000000002 234.09099999999998 244.072 232.665 241.67100000000002 231.689 C 239.268 230.712 236.716 230.187 234.165 230.187 z M 234.165 266.736 C 225.009 266.736 218.404 259.531 218.404 250 C 218.404 240.469 225.083 233.264 234.165 233.264 C 243.24599999999998 233.264 249.926 240.544 249.926 250 C 249.925 259.456 243.246 266.736 234.165 266.736 z M 277.243 230.187 C 272.365 230.187 268.312 233.114 265.985 237.76700000000002 L 265.985 231.08800000000002 L 262.458 231.08800000000002 L 262.458 268.76300000000003 L 265.985 268.76300000000003 L 265.985 246.99800000000005 C 265.985 239.26800000000006 271.088 233.48900000000003 277.017 233.48900000000003 C 278.668 233.33900000000003 280.319 233.63900000000004 281.745 234.46500000000003 L 283.021 231.53800000000004 C 281.296 230.487 279.27 230.037 277.243 230.187 z M 303.511 230.187 C 293.079 230.187 284.523 238.818 284.523 250 C 284.523 261.182 292.70300000000003 269.813 304.336 269.813 C 311.541 269.813 316.79400000000004 267.186 320.247 262.83299999999997 L 317.845 260.73199999999997 C 314.843 264.409 311.09000000000003 266.811 304.336 266.811 C 295.40500000000003 266.811 288.575 260.73199999999997 288.2 250.825 L 322.123 250.825 C 321.898 238.592 314.693 230.187 303.511 230.187 L 303.511 230.187 z M 288.351 247.598 C 289.327 239.26700000000002 295.256 233.263 303.511 233.263 C 312.89200000000005 233.263 317.545 239.567 318.446 247.598 L 288.351 247.598 z" stroke-linecap="round"/>
</g>
<g transform="matrix(1 0 0 1 695.28 360.11)">
<linearGradient id="SVGID_SVGID_1__3" gradientUnits="userSpaceOnUse" gradientTransform="matrix(1 0 0 1 0 -428)" x1="335.5571" y1="677.5121" x2="475.255" y2="677.5121">
<stop offset="0%" style="stop-color:rgb(255,108,14);stop-opacity: 1"/>
<stop offset="100%" style="stop-color:rgb(235,0,139);stop-opacity: 1"/>
</linearGradient>
<path style="stroke: none; stroke-width: 1; stroke-dasharray: none; stroke-linecap: butt; stroke-dashoffset: 0; stroke-linejoin: miter; stroke-miterlimit: 4; fill: url(#SVGID_SVGID_1__3); fill-rule: nonzero; opacity: 1;" vector-effect="non-scaling-stroke" transform=" translate(-405.28, -249.51)" d="M 428.319 220.205 C 427.118 220.205 425.91700000000003 220.43 424.71700000000004 220.88000000000002 C 423.59100000000007 221.33 422.54100000000005 222.00600000000003 421.71500000000003 222.90600000000003 C 420.814 223.80700000000004 420.139 224.78200000000004 419.689 225.90800000000004 C 419.23900000000003 227.03400000000005 419.014 228.23500000000004 419.014 229.51000000000005 L 419.089 259.23 C 419.089 262.832 417.663 266.36 415.111 268.911 C 412.55899999999997 271.462 409.10699999999997 272.889 405.43 272.889 C 403.629 272.889 401.82800000000003 272.514 400.176 271.838 C 398.525 271.163 397.024 270.112 395.748 268.911 C 394.472 267.635 393.497 266.134 392.82099999999997 264.483 C 392.1449999999999 262.832 391.77 261.031 391.77 259.229 L 391.84499999999997 229.509 C 391.84499999999997 227.03199999999998 390.86899999999997 224.706 389.143 222.90499999999997 C 387.417 221.17899999999997 385.015 220.20299999999997 382.539 220.20299999999997 C 380.063 220.20299999999997 377.736 221.17899999999997 375.935 222.90499999999997 C 374.209 224.63099999999997 373.233 227.03299999999996 373.233 229.509 L 373.233 259.604 C 373.233 260.054 373.158 260.43 373.008 260.805 C 372.858 261.18 372.633 261.556 372.33299999999997 261.856 C 372.03299999999996 262.156 371.65799999999996 262.381 371.282 262.531 C 370.907 262.681 370.45599999999996 262.75600000000003 370.08099999999996 262.75600000000003 C 369.25499999999994 262.75600000000003 368.42999999999995 262.38100000000003 367.82899999999995 261.78000000000003 C 367.2289999999999 261.18 366.85299999999995 260.35400000000004 366.85299999999995 259.52900000000005 L 366.85299999999995 239.49100000000004 C 366.85299999999995 237.01400000000004 365.87699999999995 234.68800000000005 364.15099999999995 232.88700000000003 C 362.42499999999995 231.16100000000003 360.02299999999997 230.18500000000003 357.54699999999997 230.18500000000003 C 355.07099999999997 230.18500000000003 352.74399999999997 231.16100000000003 350.943 232.88700000000003 C 349.217 234.61300000000003 348.241 237.01500000000004 348.166 239.49100000000004 L 348.166 249.47300000000004 C 348.166 250.29900000000004 347.791 251.12400000000005 347.19 251.72400000000005 C 346.589 252.32400000000004 345.764 252.70000000000005 344.939 252.70000000000005 C 344.11400000000003 252.70000000000005 343.288 252.32500000000005 342.68800000000005 251.72400000000005 C 342.088 251.12400000000005 341.71200000000005 250.29800000000006 341.71200000000005 249.47300000000004 L 341.71200000000005 247.52200000000005 C 341.71200000000005 246.69600000000005 341.41200000000003 245.94600000000005 340.81100000000004 245.34600000000006 C 340.21000000000004 244.74600000000007 339.46000000000004 244.44500000000005 338.63500000000005 244.44500000000005 C 337.81000000000006 244.44500000000005 337.059 244.74500000000006 336.45900000000006 245.34600000000006 C 335.85900000000004 245.94600000000005 335.55800000000005 246.69700000000006 335.55800000000005 247.52200000000005 L 335.55800000000005 249.47300000000004 C 335.55800000000005 251.95000000000005 336.53400000000005 254.27600000000004 338.26000000000005 256.07700000000006 C 339.98600000000005 257.80300000000005 342.38800000000003 258.77900000000005 344.86400000000003 258.77900000000005 C 347.341 258.77900000000005 349.66700000000003 257.80300000000005 351.468 256.07700000000006 C 353.194 254.35100000000006 354.17 251.94900000000007 354.17 249.47300000000004 L 354.17 239.49100000000004 C 354.17 238.66500000000005 354.545 237.84000000000003 355.146 237.24000000000004 C 355.74600000000004 236.64000000000004 356.572 236.26400000000004 357.397 236.26400000000004 C 358.222 236.26400000000004 359.048 236.63900000000004 359.64799999999997 237.24000000000004 C 360.248 237.84000000000003 360.62399999999997 238.66600000000003 360.62399999999997 239.49100000000004 L 360.62399999999997 259.52900000000005 C 360.62399999999997 262.00600000000003 361.59999999999997 264.33200000000005 363.32599999999996 266.13300000000004 C 365.05199999999996 267.85900000000004 367.45399999999995 268.83500000000004 369.92999999999995 268.83500000000004 C 371.131 268.83500000000004 372.33199999999994 268.61 373.5319999999999 268.16 C 374.6579999999999 267.71000000000004 375.7079999999999 267.03400000000005 376.53399999999993 266.134 C 377.43499999999995 265.233 378.10999999999996 264.25800000000004 378.55999999999995 263.132 C 379.00999999999993 262.00600000000003 379.23499999999996 260.805 379.23499999999996 259.53000000000003 L 379.23499999999996 229.43500000000003 C 379.23499999999996 228.60900000000004 379.53499999999997 227.78400000000002 380.13599999999997 227.18400000000003 C 380.436 226.88400000000001 380.811 226.65900000000002 381.18699999999995 226.50900000000001 C 381.56299999999993 226.359 382.013 226.28400000000002 382.388 226.28400000000002 C 382.83799999999997 226.28400000000002 383.214 226.359 383.589 226.50900000000001 C 383.964 226.65900000000002 384.339 226.88400000000001 384.64 227.18400000000003 C 384.94 227.48400000000004 385.16499999999996 227.85900000000004 385.315 228.235 C 385.465 228.61 385.54 229.061 385.54 229.436 L 385.46500000000003 259.156 C 385.46500000000003 264.41 387.56600000000003 269.438 391.244 273.115 C 394.92100000000005 276.79200000000003 399.95000000000005 278.894 405.20300000000003 278.894 C 410.456 278.894 415.485 276.793 419.16200000000003 273.115 C 422.83900000000006 269.438 424.94100000000003 264.409 424.94100000000003 259.156 L 424.86600000000004 229.436 C 424.86600000000004 228.61 425.24100000000004 227.785 425.84200000000004 227.185 C 426.44200000000006 226.585 427.26800000000003 226.209 428.09400000000005 226.209 C 428.9200000000001 226.209 429.74500000000006 226.584 430.345 227.185 C 430.94500000000005 227.785 431.321 228.611 431.321 229.436 L 431.321 259.531 C 431.321 262.008 432.297 264.334 434.098 266.135 C 435.824 267.861 438.226 268.837 440.702 268.837 C 443.179 268.837 445.505 267.861 447.306 266.135 C 449.032 264.409 450.008 262.007 450.008 259.531 L 450.008 239.493 C 450.008 238.667 450.383 237.84199999999998 450.984 237.242 C 451.584 236.642 452.40999999999997 236.266 453.23499999999996 236.266 C 453.68499999999995 236.266 454.061 236.34099999999998 454.436 236.49099999999999 C 454.811 236.641 455.186 236.86599999999999 455.48699999999997 237.166 C 455.78799999999995 237.466 456.01199999999994 237.841 456.162 238.21699999999998 C 456.31199999999995 238.59199999999998 456.387 239.04299999999998 456.387 239.41799999999998 L 456.387 249.39999999999998 C 456.387 251.87699999999998 457.363 254.20299999999997 459.089 256.00399999999996 C 460.815 257.72999999999996 463.217 258.70599999999996 465.693 258.70599999999996 C 468.169 258.70599999999996 470.496 257.72999999999996 472.29699999999997 256.00399999999996 C 474.02299999999997 254.27799999999996 474.99899999999997 251.87599999999998 474.99899999999997 249.39999999999995 L 474.99899999999997 247.44899999999996 C 474.99899999999997 246.62299999999996 474.69899999999996 245.87299999999996 474.09799999999996 245.27299999999997 C 473.49799999999993 244.67299999999997 472.74699999999996 244.37199999999996 471.92199999999997 244.37199999999996 C 471.09599999999995 244.37199999999996 470.34599999999995 244.67199999999997 469.746 245.27299999999997 C 469.14599999999996 245.87299999999996 468.84499999999997 246.62399999999997 468.84499999999997 247.44899999999996 L 468.84499999999997 249.39999999999995 C 468.84499999999997 250.22599999999994 468.46999999999997 251.05099999999996 467.86899999999997 251.65099999999995 C 467.26899999999995 252.25099999999995 466.443 252.62699999999995 465.61699999999996 252.62699999999995 C 464.79099999999994 252.62699999999995 463.96599999999995 252.25199999999995 463.366 251.65099999999995 C 462.76599999999996 251.05099999999996 462.39 250.22499999999997 462.39 249.39999999999995 L 462.39 239.41799999999995 C 462.39 236.94099999999995 461.414 234.61499999999995 459.688 232.81399999999994 C 457.962 231.08799999999994 455.56 230.11199999999994 453.084 230.11199999999994 C 450.607 230.11199999999994 448.281 231.08799999999994 446.48 232.81399999999994 C 444.754 234.53999999999994 443.778 236.94199999999995 443.778 239.41799999999995 L 443.778 259.53099999999995 C 443.778 260.35699999999997 443.403 261.18199999999996 442.802 261.78299999999996 C 442.202 262.383 441.37600000000003 262.75899999999996 440.55 262.75899999999996 C 439.724 262.75899999999996 438.899 262.38399999999996 438.29900000000004 261.78299999999996 C 437.699 261.18299999999994 437.32300000000004 260.35699999999997 437.32300000000004 259.53099999999995 L 437.32300000000004 229.43599999999995 C 437.32300000000004 226.95899999999995 436.34700000000004 224.55799999999994 434.62100000000004 222.83199999999994 C 432.89500000000004 221.10599999999994 430.49300000000005 220.12999999999994 428.01700000000005 220.12999999999994 L 428.31700000000006 220.12999999999994 L 428.31700000000006 220.205 z" stroke-linecap="round"/>
</g>
</svg>